<svg width="220" height="220" viewBox="0 0 220 220" fill="none" xmlns="http://www.w3.org/2000/svg">
  <rect width="220" height="220" fill="none"/>
  <ellipse cx="112" cy="174" rx="62" ry="13" fill="#A7B78F" fill-opacity=".18"/>
  <path d="M58 167c13-22 85-24 105 0 3 4 1 9-4 10-28 6-68 6-98 0-5-1-6-6-3-10Z" fill="#9A744E"/>
  <path d="M70 166c21-11 61-12 82 0" stroke="#7D5D3E" stroke-width="4" stroke-linecap="round" opacity=".28"/>
  <path d="M109 162c1-23 2-55 2-76" stroke="#6F8F5B" stroke-width="7" stroke-linecap="round"/>
  <path d="M108 106C88 84 66 82 49 93c12 23 38 31 60 18" fill="#A8BC8F"/>
  <path d="M111 97c14-25 35-36 58-31-2 29-24 48-57 39" fill="#A8BC8F"/>
  <path d="M55 94c17 1 35 7 52 17" stroke="#6F8F5B" stroke-width="3" stroke-linecap="round" opacity=".45"/>
  <path d="M164 70c-19 6-35 18-51 33" stroke="#6F8F5B" stroke-width="3" stroke-linecap="round" opacity=".45"/>
  <circle cx="74" cy="169" r="3" fill="#7D5D3E" opacity=".35"/>
  <circle cx="142" cy="165" r="3" fill="#7D5D3E" opacity=".32"/>
  <path d="M34 124c9 2 14 8 15 18-11 0-18-6-15-18Z" fill="#B4C49D"/>
  <path d="M181 121c-9 2-14 8-15 18 11 0 18-6 15-18Z" fill="#B4C49D"/>
</svg>
